<?xml version="1.0" standalone="no"?>
<!DOCTYPE svg PUBLIC "-//W3C//DTD SVG 20010904//EN"
 "http://www.w3.org/TR/2001/REC-SVG-20010904/DTD/svg10.dtd">
<svg version="1.0" xmlns="http://www.w3.org/2000/svg"
 width="512.000000pt" height="512.000000pt" viewBox="0 0 512.000000 512.000000"
 preserveAspectRatio="xMidYMid meet">

<g transform="translate(0.000000,512.000000) scale(0.100000,-0.100000)"
fill="#000000" stroke="none">
<path d="M3191 4874 c9 -10 129 -153 267 -317 l252 -298 1 43 c0 24 3 60 7 82
l7 38 81 -84 c165 -172 271 -371 319 -600 9 -40 20 -133 26 -207 10 -149 22
-180 79 -218 62 -43 146 -21 191 49 19 31 20 43 15 178 -10 233 -61 441 -158
635 -81 161 -159 267 -307 415 l-134 134 68 63 c37 35 66 65 64 67 -2 2 -152
8 -334 15 -181 7 -359 15 -395 18 -63 6 -65 5 -49 -13z"/>
<path d="M1695 4856 c-601 -99 -1061 -556 -1191 -1182 -23 -111 -27 -153 -27
-299 1 -296 56 -527 184 -765 241 -446 680 -733 1160 -757 l106 -6 6 84 c13
158 73 368 157 544 223 465 646 800 1130 891 l96 18 -4 66 c-18 349 -164 704
-392 954 -214 234 -441 367 -745 438 -114 26 -363 33 -480 14z m335 -699 l0
-73 80 -23 c85 -25 213 -98 206 -118 -6 -14 -145 -203 -149 -203 -2 0 -33 14
-68 32 -56 28 -76 33 -159 36 -71 3 -105 0 -133 -11 -62 -26 -73 -100 -20
-134 14 -9 78 -25 142 -35 196 -31 305 -78 380 -163 61 -70 76 -117 76 -235 0
-96 -2 -110 -29 -163 -49 -97 -147 -170 -269 -201 l-52 -13 -3 -82 -3 -81
-134 0 -135 0 0 80 c0 74 -2 80 -20 80 -37 0 -142 40 -197 76 -54 34 -143 111
-143 123 0 9 160 205 171 209 5 2 26 -11 46 -29 148 -130 453 -127 453 4 0 65
-49 91 -216 113 -264 34 -381 119 -415 300 -36 195 59 348 257 414 l64 22 0
74 0 74 135 0 135 0 0 -73z"/>
<path d="M3305 3219 c-284 -44 -543 -173 -754 -374 -222 -212 -363 -464 -437
-781 -26 -111 -28 -134 -28 -334 0 -241 10 -315 70 -500 77 -236 197 -433 374
-611 195 -197 423 -321 700 -382 76 -16 129 -20 270 -20 153 0 189 3 287 26
124 28 263 80 363 135 315 172 571 483 689 837 117 352 105 757 -33 1099 -182
452 -559 781 -1016 887 -98 23 -386 34 -485 18z m571 -683 c108 -26 103 -16
92 -196 -6 -85 -11 -156 -12 -158 -2 -1 -43 7 -92 19 -116 27 -249 24 -290 -7
-43 -32 -63 -65 -70 -116 l-7 -48 162 0 161 0 0 -85 0 -85 -420 0 -420 0 0 85
0 85 65 0 65 0 0 58 c1 228 140 409 352 457 85 19 318 14 414 -9z m-56 -846
l0 -90 -161 0 -162 0 5 -45 c7 -61 31 -93 86 -118 40 -18 64 -21 152 -20 58 1
134 9 170 17 36 8 68 11 71 8 4 -4 10 -78 14 -164 l7 -157 -38 -10 c-22 -6
-82 -17 -134 -26 -248 -40 -457 5 -583 124 -89 84 -137 200 -137 334 l0 57
-65 0 -65 0 0 90 0 90 420 0 420 0 0 -90z"/>
<path d="M625 2101 c-62 -37 -70 -62 -68 -201 5 -441 184 -826 531 -1141 l72
-65 -68 -66 -68 -66 81 -6 c131 -9 669 -29 687 -25 13 3 -51 85 -245 314
l-262 310 -3 -78 c-2 -42 -7 -77 -11 -77 -18 0 -170 171 -225 253 -128 193
-206 451 -206 685 0 110 -57 182 -145 182 -22 0 -54 -8 -70 -19z"/>
</g>
</svg>
